<?xml version="1.0" encoding="utf-8"?>
<!-- Generator: Adobe Illustrator 19.1.0, SVG Export Plug-In . SVG Version: 6.00 Build 0)  -->
<svg version="1.1" id="Layer_1" xmlns="http://www.w3.org/2000/svg" xmlns:xlink="http://www.w3.org/1999/xlink" x="0px" y="0px"
	 width="370px" height="130px" viewBox="0 0 370 130" style="enable-background:new 0 0 370 130;" xml:space="preserve">
<style type="text/css">
	.st0{fill:#4C4C4C;}
</style>
<g>
	<g>
		<rect x="8" y="9.9" class="st0" width="10" height="110"/>
		<rect x="20" y="19.9" class="st0" width="10" height="100"/>
		<rect x="32" y="9.9" class="st0" width="10" height="110"/>
		<rect x="44" y="49.9" class="st0" width="10" height="70"/>
		<rect x="56" y="39.9" class="st0" width="10" height="80"/>
		<rect x="68" y="49.9" class="st0" width="10" height="70"/>
		<rect x="80" y="39.9" class="st0" width="10" height="80"/>
		<rect x="92" y="49.9" class="st0" width="10" height="70"/>
		<rect x="104" y="39.9" class="st0" width="10" height="80"/>
		<rect x="116" y="49.9" class="st0" width="10" height="70"/>
		<rect x="128" y="9.9" class="st0" width="10" height="110"/>
		<rect x="140" y="19.9" class="st0" width="10" height="100"/>
		<rect x="152" y="9.9" class="st0" width="10" height="110"/>
	</g>
	<g>
		<path class="st0" d="M174.1,48.1h7V74h15.5v5.9h-22.5V48.1z"/>
		<path class="st0" d="M206.3,53.3H200v-5.2h6.3V53.3z M200,56.8h6.3v23H200V56.8z"/>
		<path class="st0" d="M216.2,72.4c0,2.8,2.4,3.9,4.9,3.9c1.8,0,4.1-0.7,4.1-2.9c0-1.9-2.6-2.6-7.2-3.6c-3.6-0.8-7.3-2.1-7.3-6.1
			c0-5.9,5.1-7.4,10-7.4c5,0,9.7,1.7,10.1,7.3h-6c-0.2-2.4-2-3.1-4.3-3.1c-1.4,0-3.5,0.3-3.5,2.1c0,2.3,3.6,2.6,7.2,3.4
			c3.7,0.8,7.3,2.2,7.3,6.5c0,6.1-5.3,8-10.5,8c-5.3,0-10.5-2-10.8-8.1H216.2z"/>
		<path class="st0" d="M243.2,56.8h4.6v4.2h-4.6v11.4c0,2.1,0.5,2.7,2.7,2.7c0.7,0,1.3,0,2-0.2v4.9c-1.1,0.2-2.4,0.2-3.7,0.2
			c-3.9,0-7.3-0.9-7.3-5.5V61.1H233v-4.2h3.8v-6.9h6.3V56.8z"/>
		<path class="st0" d="M256,69.9c0.2,4,2.1,5.8,5.7,5.8c2.5,0,4.6-1.6,5-3h5.6c-1.8,5.4-5.6,7.7-10.8,7.7c-7.3,0-11.7-5-11.7-12.1
			c0-6.9,4.8-12.1,11.7-12.1c7.8,0,11.6,6.6,11.2,13.7H256z M266.3,65.9c-0.6-3.2-2-4.9-5-4.9c-4,0-5.2,3.1-5.3,4.9H266.3z"/>
		<path class="st0" d="M276.4,56.8h6V60h0.1c1.6-2.6,4.4-3.8,7-3.8c6.7,0,8.4,3.8,8.4,9.5v14.1h-6.3v-13c0-3.8-1.1-5.7-4-5.7
			c-3.4,0-4.9,1.9-4.9,6.6v12.1h-6.3V56.8z"/>
		<path class="st0" d="M309.3,53.3h-6.3v-5.2h6.3V53.3z M302.9,56.8h6.3v23h-6.3V56.8z"/>
		<path class="st0" d="M314.2,56.8h6V60h0.1c1.6-2.6,4.4-3.8,7-3.8c6.7,0,8.4,3.8,8.4,9.5v14.1h-6.3v-13c0-3.8-1.1-5.7-4-5.7
			c-3.4,0-4.9,1.9-4.9,6.6v12.1h-6.3V56.8z"/>
		<path class="st0" d="M362.7,78.4c0,3.8-1.3,10.2-11.9,10.2c-4.5,0-9.8-2.1-10.1-7.4h6.3c0.6,2.4,2.5,3.2,4.7,3.2
			c3.5,0,5.1-2.4,5.1-5.7v-3h-0.1c-1.4,2.4-4.1,3.6-6.9,3.6c-6.9,0-9.8-5.3-9.8-11.6c0-6,3.4-11.4,9.9-11.4c3,0,5.3,1,6.9,3.7h0.1
			v-3.1h6V78.4z M356.7,68c0-3.7-1.3-7.1-5.4-7.1c-3.6,0-5.1,3.1-5.1,6.5c0,3.3,1.2,6.9,5.1,6.9C355,74.4,356.7,71.3,356.7,68z"/>
		<path class="st0" d="M196.8,97.6c-0.9-4.5-4.5-6.8-8.9-6.8c-7.6,0-10.8,6.2-10.8,12.9c0,7.3,3.2,13.3,10.8,13.3
			c5.6,0,8.8-3.9,9.2-9.2h4.2c-0.8,7.9-5.7,12.7-13.7,12.7c-9.9,0-14.7-7.3-14.7-16.6c0-9.2,5.3-16.7,15-16.7
			c6.6,0,12.1,3.6,13.1,10.3H196.8z"/>
		<path class="st0" d="M215.9,96.3c7.3,0,11.2,5.3,11.2,12.1c0,6.7-3.9,12-11.2,12s-11.2-5.3-11.2-12
			C204.7,101.6,208.6,96.3,215.9,96.3z M215.9,117c4,0,7.2-3.1,7.2-8.7c0-5.6-3.2-8.7-7.2-8.7s-7.2,3.1-7.2,8.7
			C208.7,113.9,211.9,117,215.9,117z"/>
		<path class="st0" d="M250.6,119.8H247v-3.6h-0.1c-1.6,2.8-4.2,4.2-7.5,4.2c-6.1,0-7.9-3.5-7.9-8.4V96.8h3.8v15.6
			c0,2.8,1.8,4.6,4.7,4.6c4.6,0,6.8-3.1,6.8-7.2v-13h3.8V119.8z"/>
		<path class="st0" d="M256.3,96.8h3.6v3.6h0.1c1.6-2.8,4.2-4.2,7.5-4.2c6.1,0,7.9,3.5,7.9,8.4v15.1h-3.8v-15.6
			c0-2.8-1.8-4.6-4.7-4.6c-4.6,0-6.8,3.1-6.8,7.2v13h-3.8V96.8z"/>
		<path class="st0" d="M296.6,104.2c-0.6-2.9-2.6-4.6-5.7-4.6c-5.5,0-7.2,4.3-7.2,9c0,4.2,1.9,8.4,6.7,8.4c3.6,0,5.8-2.1,6.3-5.6
			h3.9c-0.8,5.6-4.4,8.9-10.1,8.9c-7,0-10.8-4.9-10.8-11.7c0-6.9,3.6-12.3,10.9-12.3c5.2,0,9.4,2.4,9.9,7.9H296.6z"/>
		<path class="st0" d="M308.9,92.7h-3.8v-4.6h3.8V92.7z M305.1,96.8h3.8v23h-3.8V96.8z"/>
		<path class="st0" d="M315,88.1h3.8v31.8H315V88.1z"/>
	</g>
</g>
</svg>
